<?xml version="1.0" encoding="utf-8"?>
<!-- Uploaded to: SVG Repo, www.svgrepo.com, Generator: SVG Repo Mixer Tools -->
<svg fill="white" version="1.1" id="Layer_1" xmlns="http://www.w3.org/2000/svg" xmlns:xlink="http://www.w3.org/1999/xlink" 
	 width="3rem" height="3rem" viewBox="0 0 256 245" enable-background="new 0 0 256 245" xml:space="preserve">
<path d="M192.498,113.8c9.278,0,16.8,7.522,16.8,16.8s-7.522,16.8-16.8,16.8s-16.8-7.522-16.8-16.8S183.22,113.8,192.498,113.8z
	 M171.798,155.6c9.278,0,16.8,7.522,16.8,16.8s-7.522,16.8-16.8,16.8s-16.8-7.522-16.8-16.8S162.52,155.6,171.798,155.6z
	 M144.998,192.3h-18.9h-18.9c-11.5,0-18.7,9.5-18.7,21.4V243h12.9v-25.9c0-1.2,1-2,2-2c1.2,0,2,0.8,2,2v25.8h41.5v-25.8
	c0-1.2,1-2,2-2c1.2,0,2,1,2,2v25.8h12.9v-29.1C163.998,201.8,156.698,192.3,144.998,192.3z M149.698,113.8
	c9.278,0,16.8,7.522,16.8,16.8s-7.522,16.8-16.8,16.8s-16.8-7.522-16.8-16.8S140.42,113.8,149.698,113.8z M199.098,172.4
	c0,9.3,7.5,16.8,16.8,16.8s16.8-7.5,16.8-16.8s-7.5-16.8-16.8-16.8S199.098,163.1,199.098,172.4z M197.398,192.3
	c-11.5,0-18.7,9.5-18.7,21.4V243h12.9v-25.9c0-1.2,1-2,2-2c1.2,0,2,0.8,2,2v25.8h41.5v-25.8c0-1.2,1-2,2-2c1.2,0,2,1,2,2v25.8h12.9
	v-29.1c0.2-12.1-7.1-21.6-18.7-21.6h-18.9h-19V192.3z M39.798,155.6c9.278,0,16.8,7.522,16.8,16.8s-7.522,16.8-16.8,16.8
	s-16.8-7.522-16.8-16.8S30.52,155.6,39.798,155.6z M14.798,242.9v-25.8c0-1.2,1-2,2-2c1.2,0,2,0.8,2,2v25.8h41.5v-25.8
	c0-1.2,1-2,2-2c1.2,0,2,1,2,2v25.8h12.9v-29.1c0.2-12.1-7.1-21.6-18.7-21.6h-18.9h-18.9c-11.5,0-18.7,9.5-18.7,21.4v29.3
	L14.798,242.9L14.798,242.9z M109.298,172.4c0,9.3,7.5,16.8,16.8,16.8c9.3,0,16.8-7.5,16.8-16.8s-7.5-16.8-16.8-16.8
	S109.298,163.1,109.298,172.4z M61.298,113.8c9.278,0,16.8,7.522,16.8,16.8s-7.522,16.8-16.8,16.8s-16.8-7.522-16.8-16.8
	S52.02,113.8,61.298,113.8z M106.698,113.8c9.278,0,16.8,7.522,16.8,16.8s-7.522,16.8-16.8,16.8s-16.8-7.522-16.8-16.8
	S97.42,113.8,106.698,113.8z M84.098,155.6c9.278,0,16.8,7.522,16.8,16.8s-7.522,16.8-16.8,16.8s-16.8-7.522-16.8-16.8
	S74.82,155.6,84.098,155.6z M128.048,54.035l-2.009-0.765L93.565,41.122V70.87c0,6.409,15.4,11.622,34.435,11.622
	s34.435-5.213,34.435-11.622V41.122L130.057,53.27L128.048,54.035z M82.039,30.648v36.97c2.296,1.052,3.874,3.396,3.874,6.122V90
	H72.522V73.739c0-2.678,1.578-5.022,3.826-6.074V28.543l-9.565-3.587L128.048,2l61.17,22.957l-61.17,22.957L82.039,30.648z"/>
</svg>